<svg width="49" height="45" viewBox="0 0 49 45" fill="none" xmlns="http://www.w3.org/2000/svg">
    <path
        d="M26.5261 0H21.8786V45H26.5261V0ZM31.1792 4.63871H34.999C38.4691 4.64471 41.7955 6.04775 44.2502 8.54077C46.705 11.0338 48.0882 14.4137 48.0971 17.9409V27.0023C48.0882 30.5275 46.7066 33.9057 44.2542 36.3984C41.8019 38.8911 38.4783 40.2955 35.0102 40.3045H31.1792V35.8135H34.999C37.2894 35.7986 39.4811 34.864 41.0965 33.2135C42.7119 31.563 43.62 29.3304 43.6229 27.0023V17.9409C43.6127 15.6177 42.7013 13.3924 41.0867 11.748C39.4721 10.1037 37.2846 9.17298 34.999 9.15804H31.1792V4.63871ZM13.0869 4.63871H17.2255V9.18646H13.0869C10.8072 9.20136 8.625 10.1285 7.01297 11.767C5.40094 13.4056 4.48882 15.6237 4.47416 17.9409V27.0023C4.47411 29.3294 5.37974 31.562 6.99335 33.2128C8.60696 34.8636 10.7975 35.7985 13.0869 35.8135H17.2255V40.3613H13.0869C9.60907 40.3523 6.27707 38.9401 3.82312 36.4351C1.36918 33.9301 -0.00592199 30.5373 1.91719e-05 27.0023V17.9409C0.00887779 14.4157 1.39051 11.0375 3.84286 8.54477C6.29521 6.05208 9.61876 4.64771 13.0869 4.63871Z"
        fill="#22AEA8" />
</svg>
