<svg width="195" height="45" viewBox="0 0 195 45" fill="none" xmlns="http://www.w3.org/2000/svg">
    <g clip-path="url(#clip0_1186_6034)">
        <path
            d="M166.663 35.484C166.922 35.7236 167.125 36.02 167.256 36.3509C167.387 36.6817 167.442 37.0383 167.418 37.394C167.443 37.7732 167.383 38.1534 167.241 38.5052C167.1 38.8571 166.881 39.1712 166.601 39.4234C165.929 39.9289 165.103 40.1747 164.269 40.117H160.975V31.9992H162.093V34.8416H164.465C165.249 34.7846 166.028 35.0122 166.663 35.484ZM165.751 38.747C165.932 38.5803 166.075 38.3741 166.167 38.1437C166.259 37.9134 166.298 37.6648 166.282 37.4168C166.282 36.3026 165.596 35.7455 164.224 35.7455H162.104V39.2245H164.224C164.771 39.2603 165.312 39.0971 165.751 38.764V38.747ZM168.687 31.9992H169.806V40.1227H168.687V31.9992ZM158.385 32.7553C158.666 33.0212 158.889 33.3429 159.042 33.7004C159.195 34.0578 159.274 34.4433 159.274 34.8331C159.274 35.2228 159.195 35.6083 159.042 35.9658C158.889 36.3232 158.666 36.6449 158.385 36.9108C157.683 37.4458 156.818 37.7115 155.941 37.6612H153.967V40.1227H152.849V31.9992H155.964C156.841 31.948 157.707 32.2161 158.408 32.7553H158.385ZM157.563 36.1661C157.743 35.9915 157.887 35.7815 157.984 35.549C158.082 35.3164 158.133 35.0661 158.133 34.8132C158.133 34.5602 158.082 34.3099 157.984 34.0773C157.887 33.8448 157.743 33.6349 157.563 33.4602C157.073 33.115 156.481 32.9505 155.885 32.9941H153.967V36.6379H155.908C156.504 36.6827 157.097 36.5159 157.586 36.1661H157.563ZM151.344 32.9941H147.234V40.1056H146.115V31.9992H151.355V33.0111L151.344 32.9941ZM142.161 32.4256C142.765 32.7826 143.266 33.2941 143.615 33.9093C143.964 34.563 144.146 35.2947 144.146 36.0382C144.146 36.7817 143.964 37.5135 143.615 38.1671C143.269 38.7848 142.767 39.2971 142.161 39.6508C141.527 40.0143 140.809 40.2006 140.081 40.1909C139.407 40.2047 138.74 40.0484 138.14 39.7361C137.565 39.4274 137.075 38.9781 136.714 38.4286C136.346 37.8578 136.121 37.2039 136.059 36.5243H134.605V40.1227H133.487V31.9992H134.605V35.484H136.076C136.15 34.8213 136.383 34.187 136.753 33.6364C137.118 33.0995 137.608 32.6622 138.179 32.3631C138.771 32.057 139.427 31.901 140.092 31.9083C140.82 31.8958 141.539 32.0823 142.172 32.4483L142.161 32.4256ZM141.568 38.7697C142.015 38.4985 142.378 38.1043 142.614 37.6328C142.867 37.1387 143 36.5897 143 36.0325C143 35.4753 142.867 34.9264 142.614 34.4323C142.373 33.9712 142.011 33.5873 141.568 33.3238C141.117 33.0554 140.603 32.9178 140.081 32.9258C139.563 32.9177 139.054 33.0554 138.61 33.3238C138.171 33.6007 137.816 33.9938 137.581 34.4607C137.331 34.9559 137.201 35.5044 137.201 36.061C137.201 36.6175 137.331 37.166 137.581 37.6612C137.82 38.1303 138.182 38.5236 138.626 38.7981C139.071 39.0665 139.58 39.2042 140.097 39.1961C140.62 39.2041 141.134 39.0665 141.585 38.7981L141.568 38.7697ZM127.676 31.9992V40.117H126.557V37.7578H124.32H124.013L122.413 40.1283H121.205L122.972 37.5589C122.442 37.3946 121.981 37.0544 121.664 36.5925C121.347 36.1024 121.186 35.5245 121.205 34.9382C121.184 34.5358 121.251 34.1336 121.402 33.7609C121.553 33.3882 121.784 33.0544 122.078 32.7837C122.745 32.241 123.584 31.966 124.438 32.0106L127.676 31.9992ZM122.911 36.2969C123.345 36.6493 123.895 36.8219 124.449 36.7801H126.563V33.0111H124.516C123.949 32.9734 123.389 33.1473 122.939 33.5C122.596 33.8823 122.406 34.381 122.406 34.8984C122.406 35.4159 122.596 35.9146 122.939 36.2969H122.911ZM112.318 31.9992H113.437V38.2524L118.163 31.9992H119.209V40.1227H118.09V33.8695L113.353 40.1227H112.307V31.9992H112.318ZM110.814 33.0111H108.074V40.1227H106.955V33.0111H104.226V31.9992H110.814V33.0111ZM95.8144 31.9992H96.933V38.2524L101.659 31.9992H102.71V40.1227H101.592V33.8695L96.8547 40.1227H95.8032V31.9992H95.8144ZM93.3984 36.6152C93.7185 37.0552 93.861 37.603 93.7965 38.1462C93.732 38.6895 93.4655 39.1872 93.0516 39.5371C92.3976 39.9654 91.6239 40.165 90.8481 40.1056H87.1961V31.9992H90.6021C91.3262 31.9655 92.0423 32.1644 92.649 32.5677C92.8906 32.7404 93.0858 32.9719 93.2167 33.241C93.3476 33.5101 93.4101 33.8083 93.3984 34.1083C93.4118 34.5126 93.2982 34.9109 93.074 35.2452C92.8431 35.5678 92.5213 35.8116 92.1512 35.9444C92.6265 36.0354 93.0589 36.2832 93.3816 36.6493L93.3984 36.6152ZM88.3258 35.5749H90.5629C91.0123 35.6048 91.4593 35.4872 91.838 35.2395C91.9777 35.1168 92.0898 34.9649 92.1666 34.7942C92.2434 34.6236 92.2831 34.4381 92.2831 34.2504C92.2831 34.0627 92.2434 33.8772 92.1666 33.7065C92.0898 33.5359 91.9777 33.384 91.838 33.2612C91.4625 33.0105 91.0169 32.8907 90.5685 32.9202H88.3314V35.5749H88.3258ZM92.6602 37.8147C92.6732 37.618 92.6382 37.4211 92.5582 37.2416C92.4781 37.0621 92.3556 36.9054 92.2016 36.7858C91.7853 36.5395 91.3064 36.4248 90.8258 36.456H88.309V39.2245H90.809C92.0338 39.2245 92.6434 38.7583 92.6434 37.8317L92.6602 37.8147ZM84.7521 36.6152C85.0355 36.9583 85.1847 37.3953 85.1716 37.8431C85.1811 38.3055 85.0217 38.7551 84.7241 39.1051C84.4001 39.4783 83.9884 39.7618 83.5273 39.9294C83.0066 40.1248 82.4549 40.2212 81.8998 40.2136C81.3631 40.214 80.8295 40.1316 80.3171 39.9692C79.7907 39.8115 79.2964 39.5593 78.8574 39.2245L79.2601 38.3718C79.6118 38.6496 80.0096 38.8614 80.4346 38.9971C80.858 39.1333 81.2991 39.2042 81.7432 39.2074C82.3096 39.2257 82.8696 39.0819 83.3595 38.7924C83.5592 38.6808 83.7251 38.516 83.8394 38.3156C83.9537 38.1153 84.0121 37.8871 84.0083 37.6555C84.0143 37.4683 83.9721 37.2826 83.8857 37.1171C83.7994 36.9516 83.672 36.8119 83.5161 36.7119C83.0969 36.468 82.6169 36.3535 82.1347 36.3821H80.3507V35.4612H82.0564C82.4766 35.4854 82.8935 35.3739 83.2477 35.1429C83.3863 35.0417 83.4981 34.9073 83.5733 34.7516C83.6484 34.5959 83.6845 34.4237 83.6783 34.2504C83.6821 34.0472 83.6322 33.8466 83.5338 33.6697C83.4355 33.4927 83.2922 33.3458 83.119 33.2442C82.6966 32.979 82.2058 32.8484 81.7097 32.869C80.919 32.8732 80.1448 33.0994 79.4726 33.5227L79.1091 32.5677C79.9142 32.1161 80.8181 31.8776 81.7376 31.8742C82.2655 31.8697 82.79 31.9601 83.2868 32.1414C83.7198 32.298 84.1052 32.5664 84.4054 32.9202C84.6617 33.2379 84.8086 33.6322 84.8238 34.0428C84.8389 34.4533 84.7214 34.8577 84.4893 35.194C84.2495 35.5112 83.9254 35.7519 83.5553 35.8876C84.0122 35.9987 84.4231 36.2533 84.7297 36.6152H84.7521ZM76.1673 38.0875H71.9225L71.0277 40.1227H69.8532L73.4661 31.9992H74.5846L78.2199 40.1227H77.0174L76.1673 38.0875ZM75.7703 37.1609L74.0477 33.1817L72.3196 37.1609H75.7703ZM68.7906 32.7553C69.0709 33.0212 69.2943 33.3429 69.4471 33.7004C69.5999 34.0578 69.6788 34.4433 69.6788 34.8331C69.6788 35.2228 69.5999 35.6083 69.4471 35.9658C69.2943 36.3232 69.0709 36.6449 68.7906 36.9108C68.0886 37.4462 67.2228 37.712 66.3466 37.6612H64.3724V40.1227H63.2538V31.9992H66.369C67.2387 31.9525 68.0966 32.2204 68.7906 32.7553ZM67.9685 36.1661C68.1485 35.9915 68.2918 35.7815 68.3897 35.549C68.4876 35.3164 68.5381 35.0661 68.5381 34.8132C68.5381 34.5602 68.4876 34.3099 68.3897 34.0773C68.2918 33.8448 68.1485 33.6349 67.9685 33.4602C67.4778 33.115 66.8859 32.9505 66.2907 32.9941H64.35V36.6379H66.2907C66.8868 36.6827 67.4797 36.5159 67.9685 36.1661ZM188.586 25.7575C187.955 25.4106 187.429 24.8957 187.065 24.2681C186.702 23.6212 186.511 22.8895 186.511 22.1448C186.511 21.4002 186.702 20.6684 187.065 20.0216C187.428 19.3929 187.954 18.8776 188.586 18.5322C189.257 18.1737 190.003 17.9864 190.761 17.9864C191.519 17.9864 192.266 18.1737 192.937 18.5322C193.567 18.8755 194.091 19.3889 194.453 20.0159C194.812 20.6661 195 21.3992 195 22.1448C195 22.8905 194.812 23.6236 194.453 24.2738C194.093 24.8981 193.573 25.4111 192.948 25.7575C192.276 26.1122 191.53 26.2974 190.773 26.2974C190.015 26.2974 189.269 26.1122 188.597 25.7575H188.586ZM192.35 24.8593C192.817 24.5898 193.203 24.197 193.468 23.7223C193.736 23.235 193.877 22.686 193.877 22.1278C193.877 21.5695 193.736 21.0206 193.468 20.5332C193.205 20.0574 192.818 19.6641 192.35 19.3963C191.867 19.1197 191.321 18.9785 190.767 18.987C190.21 18.98 189.66 19.1211 189.173 19.3963C188.706 19.666 188.32 20.0588 188.055 20.5332C187.787 21.0206 187.646 21.5695 187.646 22.1278C187.646 22.686 187.787 23.235 188.055 23.7223C188.321 24.1956 188.707 24.588 189.173 24.8593C189.661 25.1328 190.21 25.2719 190.767 25.2629C191.32 25.2731 191.867 25.1339 192.35 24.8593ZM186.696 19.095H182.585V26.2065H181.466V18.0831H186.707V19.095H186.696ZM173.094 25.7575C172.46 25.4129 171.932 24.8976 171.567 24.2681C171.204 23.6212 171.014 22.8895 171.014 22.1448C171.014 21.4002 171.204 20.6684 171.567 20.0216C171.932 19.3921 172.46 18.8768 173.094 18.5322C173.764 18.1737 174.51 17.9864 175.267 17.9864C176.024 17.9864 176.77 18.1737 177.44 18.5322C178.074 18.8738 178.602 19.3874 178.966 20.0159C179.329 20.6649 179.52 21.3984 179.52 22.1448C179.52 22.8912 179.329 23.6248 178.966 24.2738C178.604 24.8996 178.08 25.4128 177.451 25.7575C176.78 26.1122 176.034 26.2974 175.278 26.2974C174.522 26.2974 173.776 26.1122 173.105 25.7575H173.094ZM176.852 24.8593C177.319 24.5892 177.705 24.1964 177.971 23.7223C178.235 23.2338 178.374 22.6853 178.374 22.1278C178.374 21.5702 178.235 21.0217 177.971 20.5332C177.707 20.0577 177.32 19.6646 176.852 19.3963C176.37 19.1197 175.824 18.9785 175.27 18.987C174.714 18.9794 174.166 19.1205 173.681 19.3963C173.214 19.6648 172.827 20.0579 172.563 20.5332C172.298 21.0217 172.16 21.5702 172.16 22.1278C172.16 22.6853 172.298 23.2338 172.563 23.7223C172.829 24.1964 173.215 24.5892 173.681 24.8593C174.167 25.1333 174.715 25.2725 175.27 25.2629C175.823 25.2731 176.369 25.1339 176.852 24.8593ZM166.517 22.6309H164.839V26.2009H163.721V18.0831H164.839V21.6019H166.517L169.028 18.0774H170.247L167.401 22.0056L170.387 26.1952H169.09L166.495 22.6252L166.517 22.6309ZM156.836 25.7575C156.209 25.4119 155.687 24.8989 155.326 24.2738C154.967 23.6236 154.778 22.8905 154.778 22.1448C154.778 21.3992 154.967 20.6661 155.326 20.0159C155.686 19.3878 156.211 18.874 156.842 18.5322C157.505 18.1561 158.252 17.9603 159.012 17.9637C159.598 17.9568 160.179 18.0669 160.723 18.2878C161.23 18.4954 161.683 18.8182 162.049 19.2314L161.305 19.9648C161.02 19.653 160.673 19.4058 160.288 19.2393C159.902 19.0727 159.486 18.9907 159.068 18.9984C158.505 18.9907 157.95 19.1318 157.457 19.4077C156.989 19.6762 156.603 20.0693 156.338 20.5446C156.074 21.0331 155.935 21.5816 155.935 22.1392C155.935 22.6967 156.074 23.2452 156.338 23.7337C156.603 24.209 156.989 24.6021 157.457 24.8706C157.95 25.1448 158.505 25.2839 159.068 25.2743C159.487 25.2809 159.903 25.1977 160.288 25.0303C160.673 24.8628 161.02 24.6147 161.305 24.3022L162.049 25.0128C161.686 25.4326 161.229 25.7581 160.718 25.9621C160.093 26.2113 159.424 26.3215 158.754 26.2852C158.085 26.2489 157.431 26.067 156.836 25.7518V25.7575ZM153.553 25.189V26.2065H147.759V18.0831H153.397V19.095H148.923V21.6019H152.927V22.5911H148.923V25.2117L153.553 25.189ZM145.164 18.0774V26.2065H144.046V22.989C143.302 23.3024 142.507 23.472 141.702 23.4893C140.896 23.5365 140.1 23.2817 139.465 22.773C139.188 22.5128 138.972 22.193 138.831 21.8371C138.691 21.4811 138.631 21.0978 138.654 20.7151V18.0831H139.773V20.5901C139.76 20.8497 139.803 21.1092 139.9 21.3499C139.996 21.5907 140.144 21.8068 140.332 21.9828C140.767 22.3309 141.313 22.5031 141.865 22.466C142.638 22.463 143.401 22.2884 144.102 21.9544V18.0831L145.164 18.0774ZM129.975 18.0774H131.093V24.3306L135.819 18.0774H136.865V26.2065H135.746V19.9534L131.015 26.2065H129.963V18.0831L129.975 18.0774ZM128.487 19.0893H124.382V26.2009H123.263V18.0831H128.504V19.095L128.487 19.0893ZM114.885 25.7575C114.252 25.4129 113.723 24.8976 113.359 24.2681C112.996 23.6212 112.805 22.8895 112.805 22.1448C112.805 21.4002 112.996 20.6684 113.359 20.0216C113.723 19.3921 114.252 18.8768 114.885 18.5322C115.555 18.1737 116.301 17.9864 117.058 17.9864C117.815 17.9864 118.561 18.1737 119.231 18.5322C119.862 18.874 120.387 19.3878 120.747 20.0159C121.109 20.6649 121.3 21.3984 121.3 22.1448C121.3 22.8912 121.109 23.6248 120.747 24.2738C120.384 24.8996 119.86 25.4128 119.231 25.7575C118.56 26.1122 117.815 26.2974 117.058 26.2974C116.302 26.2974 115.557 26.1122 114.885 25.7575ZM118.644 24.8593C119.112 24.591 119.498 24.1978 119.762 23.7223C120.027 23.2338 120.165 22.6853 120.165 22.1278C120.165 21.5702 120.027 21.0217 119.762 20.5332C119.5 20.0565 119.113 19.6629 118.644 19.3963C118.161 19.1192 117.615 18.9779 117.061 18.987C116.505 18.9799 115.958 19.121 115.473 19.3963C115.003 19.6627 114.616 20.0563 114.354 20.5332C114.086 21.0206 113.946 21.5695 113.946 22.1278C113.946 22.686 114.086 23.235 114.354 23.7223C114.618 24.198 115.005 24.5912 115.473 24.8593C115.958 25.1326 116.506 25.2717 117.061 25.2629C117.615 25.274 118.161 25.1346 118.644 24.8593ZM110.87 18.0831V26.2065H109.751V19.095H106.211L106.133 21.4712C106.115 22.3847 106.025 23.2953 105.864 24.1942C105.779 24.7693 105.548 25.312 105.193 25.7688C105.04 25.945 104.85 26.084 104.637 26.1755C104.424 26.267 104.194 26.3087 103.963 26.2975C103.722 26.2949 103.482 26.2644 103.247 26.2065L103.32 25.1719C103.441 25.2004 103.565 25.2156 103.689 25.2174C103.843 25.222 103.996 25.1875 104.133 25.117C104.271 25.0465 104.389 24.9423 104.477 24.8138C104.714 24.4534 104.867 24.0433 104.925 23.6143C105.037 22.9168 105.101 22.212 105.115 21.5053L105.244 18.0945L110.87 18.0831ZM96.1947 25.7575C95.5609 25.4129 95.0327 24.8976 94.6679 24.2681C94.3051 23.6212 94.1142 22.8895 94.1142 22.1448C94.1142 21.4002 94.3051 20.6684 94.6679 20.0216C95.0327 19.3921 95.5609 18.8768 96.1947 18.5322C96.8647 18.1737 97.6104 17.9864 98.3675 17.9864C99.1246 17.9864 99.8703 18.1737 100.54 18.5322C101.171 18.874 101.696 19.3878 102.056 20.0159C102.415 20.6661 102.604 21.3992 102.604 22.1448C102.604 22.8905 102.415 23.6236 102.056 24.2738C101.693 24.8996 101.169 25.4128 100.54 25.7575C99.8692 26.1122 99.1239 26.2974 98.3675 26.2974C97.6111 26.2974 96.8658 26.1122 96.1947 25.7575ZM99.953 24.8593C100.421 24.591 100.808 24.1978 101.072 23.7223C101.336 23.2338 101.475 22.6853 101.475 22.1278C101.475 21.5702 101.336 21.0217 101.072 20.5332C100.809 20.0565 100.422 19.6629 99.953 19.3963C99.4704 19.1197 98.9242 18.9785 98.3703 18.987C97.8147 18.9799 97.2671 19.121 96.782 19.3963C96.3128 19.6627 95.9255 20.0563 95.6634 20.5332C95.3955 21.0206 95.2548 21.5695 95.2548 22.1278C95.2548 22.686 95.3955 23.235 95.6634 23.7223C95.9272 24.198 96.314 24.5912 96.782 24.8593C97.2676 25.1326 97.8152 25.2717 98.3703 25.2629C98.9237 25.2731 99.4699 25.1339 99.953 24.8593ZM92.1736 18.0831V26.2065H91.0551V22.5854H86.4635V26.2065H85.3449V18.0831H86.4635V21.6019H91.0551V18.0831H92.1736ZM78.287 18.0831L80.3786 21.0335L82.4647 18.0661H83.8013L81.0945 21.9828L84.0195 26.2065H82.6716L80.3786 22.9663L78.0912 26.2065H76.7825L79.6963 22.0283L76.9727 18.0831H78.287ZM76.0163 25.1947V26.2065H70.2223V18.0831H75.8597V19.095H71.3856V21.6019H75.39V22.5911H71.3632V25.2117L76.0163 25.1947ZM68.7123 19.095H65.9942V26.2065H64.8757V19.095H62.1465V18.0831H68.7291V19.095H68.7123ZM158.715 7.79384H164.425V8.57264H158.721V7.79384H158.715ZM150.796 11.8357C150.162 11.4911 149.634 10.9758 149.269 10.3463C148.896 9.70465 148.702 8.97133 148.71 8.22588C148.702 7.48032 148.895 6.74677 149.269 6.10549C149.633 5.47388 150.162 4.95655 150.796 4.61042C151.467 4.25567 152.212 4.07046 152.969 4.07046C153.725 4.07046 154.471 4.25567 155.142 4.61042C155.771 4.95668 156.295 5.47182 156.657 6.0998C157.033 6.74262 157.226 7.47836 157.216 8.22588C157.226 8.97332 157.032 9.7089 156.657 10.352C156.297 10.9801 155.773 11.4938 155.142 11.8357C154.471 12.1904 153.725 12.3756 152.969 12.3756C152.212 12.3756 151.467 12.1904 150.796 11.8357ZM154.554 10.9375C155.023 10.6708 155.411 10.2773 155.673 9.80054C155.946 9.31641 156.087 8.76689 156.081 8.20882C156.086 7.64907 155.945 7.09795 155.673 6.61143C155.411 6.13468 155.023 5.74114 154.554 5.47449C154.066 5.2182 153.521 5.09482 152.972 5.11635C152.417 5.10935 151.87 5.2484 151.383 5.51997C150.914 5.78638 150.527 6.17998 150.265 6.6569C149.992 7.14343 149.852 7.69455 149.857 8.2543C149.851 8.81237 149.992 9.36189 150.265 9.84601C150.527 10.3229 150.914 10.7165 151.383 10.983C151.868 11.2587 152.416 11.3999 152.972 11.3923C153.526 11.4008 154.072 11.2595 154.554 10.983V10.9375ZM146.781 4.16701V12.2847H145.662V8.66928H141.048V12.2847H139.93V4.16701H141.048V7.65741H145.64V4.16701H146.781ZM137.307 4.16701V12.2847H136.188V9.09564C135.445 9.40617 134.653 9.57572 133.85 9.59589C133.033 9.64972 132.226 9.39234 131.585 8.87393C131.307 8.61586 131.089 8.29747 130.947 7.94227C130.806 7.58707 130.745 7.20414 130.769 6.82176V4.16701H131.887V6.67396C131.873 6.93291 131.916 7.19187 132.012 7.43187C132.109 7.67186 132.257 7.88683 132.447 8.06102C132.882 8.41252 133.43 8.5868 133.984 8.54991C134.758 8.54709 135.521 8.37247 136.222 8.03828V4.16701H137.307ZM129.935 4.16701L126.395 10.8579C126.166 11.3321 125.826 11.742 125.405 12.0517C125.041 12.31 124.608 12.4489 124.164 12.4496C123.793 12.4464 123.427 12.3631 123.09 12.2052L123.386 11.2786C123.628 11.369 123.883 11.419 124.141 11.4264C124.4 11.4165 124.652 11.3364 124.87 11.1945C125.089 11.0526 125.266 10.8539 125.383 10.6191L125.568 10.3235L122.335 4.16701H123.554L126.149 9.28323L128.806 4.16701H129.935ZM120.199 10.2326H115.954L115.076 12.262H113.901L117.52 4.14427H118.638L122.268 12.262H121.065L120.199 10.2326ZM119.801 9.30597L118.079 5.32669L116.356 9.30597H119.801ZM112.414 4.16701V12.2847H111.295V8.66928H106.709V12.2847H105.59V4.16701H106.709V7.65741H111.295V4.16701H112.414ZM100.669 11.2786V14.0584H99.6119V12.2847H93.0405V14.0584H91.9834V11.2786H92.3693C92.8727 11.2444 93.225 10.8408 93.4319 10.062C93.6742 8.9838 93.8017 7.88222 93.8123 6.77628L93.885 4.16701H99.4776V11.2786H100.669ZM94.5169 9.72095C94.4553 10.2999 94.2166 10.8446 93.8346 11.2786H98.3423V5.1732H94.8413L94.7854 6.87861C94.765 7.83149 94.6752 8.78153 94.5169 9.72095ZM90.5349 4.16701V12.2847H89.4164V8.66928H84.8248V12.2847H83.7063V4.16701H84.8248V7.65741H89.4164V4.16701H90.5349ZM75.3228 11.8357C74.6993 11.4869 74.1811 10.972 73.824 10.3463C73.4527 9.70375 73.2594 8.97103 73.2647 8.22588C73.2589 7.48065 73.4522 6.74778 73.824 6.10549C74.188 5.47388 74.7163 4.95655 75.3508 4.61042C76.0219 4.25567 76.7672 4.07046 77.5236 4.07046C78.28 4.07046 79.0252 4.25567 79.6963 4.61042C80.326 4.95668 80.8502 5.47182 81.2119 6.0998C81.5874 6.74262 81.781 7.47836 81.7712 8.22588C81.7804 8.97332 81.5869 9.7089 81.2119 10.352C80.8522 10.9801 80.3273 11.4938 79.6963 11.8357C79.0252 12.1904 78.28 12.3756 77.5236 12.3756C76.7672 12.3756 76.0219 12.1904 75.3508 11.8357H75.3228ZM79.0811 10.9375C79.5502 10.6708 79.9373 10.2773 80.1997 9.80054C80.4728 9.31641 80.6138 8.76689 80.6079 8.20882C80.6129 7.64907 80.472 7.09795 80.1997 6.61143C79.9373 6.13468 79.5502 5.74114 79.0811 5.47449C78.5931 5.21746 78.0476 5.09403 77.4984 5.11635C76.9437 5.11013 76.3967 5.24912 75.9101 5.51997C75.4421 5.78803 75.0553 6.18123 74.7915 6.6569C74.5209 7.14388 74.3819 7.69503 74.3889 8.2543C74.3813 8.81185 74.5203 9.36133 74.7915 9.84601C75.0553 10.3217 75.4421 10.7149 75.9101 10.983C76.3952 11.2582 76.9429 11.3993 77.4984 11.3923C78.0524 11.4013 78.5987 11.26 79.0811 10.983V10.9375ZM70.927 10.7442C70.0198 11.4129 68.9209 11.7586 67.8007 11.7276V12.586H66.7381V11.7276C65.618 11.7454 64.522 11.3966 63.6118 10.7328C63.2443 10.4314 62.9517 10.0465 62.7574 9.6091C62.5631 9.17168 62.4726 8.69398 62.4932 8.21451C62.4722 7.73333 62.5624 7.25383 62.7566 6.81451C62.9509 6.37518 63.2438 5.98827 63.6118 5.68482C64.5207 5.01848 65.6176 4.66944 66.7381 4.69V3.86572H67.8007V4.69C68.9199 4.66612 70.016 5.01554 70.9214 5.68482C71.289 5.98739 71.5816 6.37333 71.7759 6.81167C71.9701 7.25001 72.0606 7.72853 72.0399 8.20882C72.0606 8.68994 71.9701 9.16929 71.7759 9.60855C71.5817 10.0478 71.2891 10.4348 70.9214 10.7385L70.927 10.7442ZM64.4171 10.062C65.0965 10.5473 65.9077 10.8056 66.7381 10.801V5.60524C65.9049 5.60467 65.092 5.86685 64.4115 6.35562C64.1447 6.58081 63.9331 6.86597 63.7933 7.18858C63.6535 7.51119 63.5895 7.86241 63.6062 8.21451C63.5888 8.5656 63.6532 8.91589 63.7941 9.23692C63.935 9.55795 64.1485 9.84065 64.4171 10.062ZM70.1384 10.062C70.4042 9.83627 70.6148 9.55085 70.7536 9.22828C70.8924 8.9057 70.9556 8.55477 70.9382 8.20314C70.9544 7.85246 70.8889 7.50284 70.7471 7.18277C70.6052 6.86269 70.3909 6.58122 70.1216 6.3613C69.4429 5.87264 68.6324 5.60862 67.8007 5.60524V10.801C68.6392 10.8026 69.457 10.5361 70.1384 10.0393V10.062Z"
            fill="#4C5A6E" />
        <path
            d="M26.5261 0H21.8786V45H26.5261V0ZM31.1792 4.63871H34.999C38.4691 4.64471 41.7955 6.04775 44.2502 8.54077C46.705 11.0338 48.0882 14.4137 48.0971 17.9409V27.0023C48.0882 30.5275 46.7066 33.9057 44.2542 36.3984C41.8019 38.8911 38.4783 40.2955 35.0102 40.3045H31.1792V35.8135H34.999C37.2894 35.7986 39.4811 34.864 41.0965 33.2135C42.7119 31.563 43.62 29.3304 43.6229 27.0023V17.9409C43.6127 15.6177 42.7013 13.3924 41.0867 11.748C39.4721 10.1037 37.2846 9.17298 34.999 9.15804H31.1792V4.63871ZM13.0869 4.63871H17.2255V9.18646H13.0869C10.8072 9.20136 8.625 10.1285 7.01297 11.767C5.40094 13.4056 4.48882 15.6237 4.47416 17.9409V27.0023C4.47411 29.3294 5.37974 31.562 6.99335 33.2128C8.60696 34.8636 10.7975 35.7985 13.0869 35.8135H17.2255V40.3613H13.0869C9.60907 40.3523 6.27707 38.9401 3.82312 36.4351C1.36918 33.9301 -0.00592199 30.5373 1.91719e-05 27.0023V17.9409C0.00887779 14.4157 1.39051 11.0375 3.84286 8.54477C6.29521 6.05208 9.61876 4.64771 13.0869 4.63871Z"
            fill="#22AEA8" />
    </g>
    <defs>
        <clipPath id="clip0_1186_6034">
            <rect width="195" height="45" fill="white" />
        </clipPath>
    </defs>
</svg>
